<?xml version="1.0" encoding="UTF-8"?>
<svg xmlns="http://www.w3.org/2000/svg" width="1600" height="900" viewBox="0 0 1600 900" aria-hidden="true" role="img">
  <defs>
    <linearGradient id="bg" x1="0" y1="0" x2="1" y2="1">
      <stop offset="0%" stop-color="#FFF9E6"/>
      <stop offset="100%" stop-color="#FFFFFF"/>
    </linearGradient>
    <filter id="soft" x="-20%" y="-20%" width="140%" height="140%">
      <feGaussianBlur stdDeviation="14"/>
    </filter>
  </defs>

  <rect width="1600" height="900" fill="url(#bg)"/>

  <!-- soft honey glows -->
  <g opacity="0.25">
    <circle cx="260" cy="200" r="190" fill="#EFCB57" filter="url(#soft)"/>
    <circle cx="1390" cy="720" r="230" fill="#E4B83A" filter="url(#soft)"/>
  </g>

  <!-- honeycomb accents (subtle) -->
  <g stroke="#cfa72b" stroke-width="2" fill="none" opacity="0.18">
    <polygon points="160,360 200,338 240,360 240,404 200,426 160,404"/>
    <polygon points="200,426 240,404 280,426 280,470 240,492 200,470"/>
    <polygon points="120,426 160,404 200,426 200,470 160,492 120,470"/>
    <polygon points="300,320 340,298 380,320 380,364 340,386 300,364"/>
    <polygon points="340,386 380,364 420,386 420,430 380,452 340,430"/>
    <polygon points="1240,520 1280,498 1320,520 1320,564 1280,586 1240,564"/>
    <polygon points="1280,586 1320,564 1360,586 1360,630 1320,652 1280,630"/>
    <polygon points="1200,586 1240,564 1280,586 1280,630 1240,652 1200,630"/>
  </g>

  <!-- stylized bees -->
  <g transform="translate(1080,240) rotate(-8)">
    <!-- body -->
    <ellipse cx="0" cy="0" rx="34" ry="22" fill="#1a1a1a"/>
    <!-- stripes -->
    <rect x="-26" y="-14" width="52" height="8" fill="#cfa72b" opacity="0.9"/>
    <rect x="-22" y="2" width="44" height="8" fill="#cfa72b" opacity="0.9"/>
    <!-- wings -->
    <ellipse cx="-6" cy="-24" rx="18" ry="12" fill="#ffffff" stroke="#cfa72b" stroke-width="2" opacity="0.8"/>
    <ellipse cx="14" cy="-20" rx="18" ry="12" fill="#ffffff" stroke="#cfa72b" stroke-width="2" opacity="0.8"/>
    <!-- antennae -->
    <path d="M-18,-10 q-12,-18 -22,-6" stroke="#1a1a1a" stroke-width="2" fill="none"/>
    <path d="M-6,-12 q-10,-20 -20,-10" stroke="#1a1a1a" stroke-width="2" fill="none"/>
  </g>

  <g transform="translate(420,640) rotate(12)">
    <ellipse cx="0" cy="0" rx="28" ry="18" fill="#1a1a1a"/>
    <rect x="-22" y="-12" width="44" height="7" fill="#cfa72b" opacity="0.9"/>
    <rect x="-18" y="2" width="36" height="7" fill="#cfa72b" opacity="0.9"/>
    <ellipse cx="-4" cy="-20" rx="16" ry="11" fill="#ffffff" stroke="#cfa72b" stroke-width="2" opacity="0.8"/>
    <ellipse cx="14" cy="-17" rx="16" ry="11" fill="#ffffff" stroke="#cfa72b" stroke-width="2" opacity="0.8"/>
    <path d="M-14,-8 q-10,-16 -18,-6" stroke="#1a1a1a" stroke-width="2" fill="none"/>
    <path d="M-4,-10 q-8,-18 -16,-9" stroke="#1a1a1a" stroke-width="2" fill="none"/>
  </g>

  <!-- gentle vignette to keep edges soft -->
  <radialGradient id="vig" cx="50%" cy="50%" r="70%">
    <stop offset="60%" stop-color="#000" stop-opacity="0"/>
    <stop offset="100%" stop-color="#000" stop-opacity="0.08"/>
  </radialGradient>
  <rect width="1600" height="900" fill="url(#vig)" opacity="0.12"/>
</svg>

