<?xml version="1.0" encoding="UTF-8"?>
<svg xmlns="http://www.w3.org/2000/svg" width="960" height="640" viewBox="0 0 960 640" aria-hidden="true" role="img">
  <defs>
    <linearGradient id="bg" x1="0" y1="0" x2="1" y2="1">
      <stop offset="0%" stop-color="#FFF9E8"/>
      <stop offset="100%" stop-color="#FFFFFF"/>
    </linearGradient>
    <linearGradient id="gold" x1="0" y1="0" x2="1" y2="1">
      <stop offset="0%" stop-color="#cfa72b"/>
      <stop offset="100%" stop-color="#b38e23"/>
    </linearGradient>
    <filter id="blur" x="-20%" y="-20%" width="140%" height="140%">
      <feGaussianBlur stdDeviation="28"/>
    </filter>
  </defs>

  <rect width="960" height="640" fill="url(#bg)"/>

  <!-- soft honey glow backdrop -->
  <g opacity="0.25">
    <circle cx="780" cy="520" r="200" fill="#EFCB57" filter="url(#blur)"/>
    <circle cx="180" cy="160" r="160" fill="#E4B83A" filter="url(#blur)"/>
  </g>

  <!-- subtle stripes -->
  <g stroke="#cfa72b" stroke-width="2" opacity="0.08" fill="none">
    <path d="M-40,120 C200,60 360,60 520,120 S840,180 1000,120"/>
    <path d="M-40,220 C200,160 360,160 520,220 S840,260 1000,220"/>
    <path d="M-40,320 C200,260 360,260 520,320 S840,360 1000,320"/>
  </g>

  <!-- hero jar illustration -->
  <g transform="translate(480,360)">
    <!-- lid -->
    <rect x="-140" y="-190" width="280" height="40" rx="8" fill="#1a1a1a" opacity="0.9"/>
    <!-- jar body -->
    <rect x="-160" y="-150" width="320" height="260" rx="28" fill="#fff" stroke="#eaeaea" stroke-width="2"/>
    <!-- honey fill -->
    <path d="M-150,40 h300 v-150 q-60,-20 -120,0 t-120,0 z" fill="url(#gold)" opacity="0.9"/>
    <!-- label -->
    <rect x="-90" y="-40" width="180" height="120" rx="16" fill="#fff" stroke="#e0e0e0"/>
    <polygon points="0,-10 34,10 34,46 0,66 -34,46 -34,10" fill="none" stroke="url(#gold)" stroke-width="5"/>
  </g>

  <!-- tiny accents -->
  <g opacity="0.12">
    <circle cx="70" cy="600" r="4" fill="#b38e23"/>
    <circle cx="900" cy="40" r="4" fill="#cfa72b"/>
  </g>
</svg>

