<?xml version="1.0" encoding="UTF-8"?>
<svg xmlns="http://www.w3.org/2000/svg" width="960" height="640" viewBox="0 0 960 640" aria-hidden="true" role="img">
  <defs>
    <linearGradient id="bg" x1="0" y1="0" x2="1" y2="1">
      <stop offset="0%" stop-color="#FFF9E8"/>
      <stop offset="100%" stop-color="#FFFFFF"/>
    </linearGradient>
    <linearGradient id="gold" x1="0" y1="0" x2="1" y2="1">
      <stop offset="0%" stop-color="#cfa72b"/>
      <stop offset="100%" stop-color="#b38e23"/>
    </linearGradient>
    <filter id="blur" x="-20%" y="-20%" width="140%" height="140%">
      <feGaussianBlur stdDeviation="28"/>
    </filter>
  </defs>

  <rect width="960" height="640" fill="url(#bg)"/>

  <!-- soft honey glow backdrop -->
  <g opacity="0.22">
    <circle cx="780" cy="520" r="200" fill="#EFCB57" filter="url(#blur)"/>
    <circle cx="220" cy="140" r="160" fill="#E4B83A" filter="url(#blur)"/>
  </g>

  <!-- honeycomb cluster -->
  <g transform="translate(480,320)" fill="url(#gold)" opacity="0.9" stroke="#d5a93c" stroke-width="2">
    <polygon points="-160,-40 -120,-64 -80,-40 -80,8 -120,32 -160,8"/>
    <polygon points="-80,-40 -40,-64 0,-40 0,8 -40,32 -80,8"/>
    <polygon points="0,-40 40,-64 80,-40 80,8 40,32 0,8"/>
    <polygon points="80,-40 120,-64 160,-40 160,8 120,32 80,8"/>
    <polygon points="-120,32 -80,8 -40,32 -40,80 -80,104 -120,80"/>
    <polygon points="-40,32 0,8 40,32 40,80 0,104 -40,80"/>
    <polygon points="40,32 80,8 120,32 120,80 80,104 40,80"/>
  </g>

  <!-- outline highlight -->
  <g transform="translate(480,320)" fill="none" stroke="#cfa72b" stroke-width="4" opacity="0.35">
    <polygon points="-160,-40 -120,-64 -80,-40 -80,8 -120,32 -160,8"/>
    <polygon points="-80,-40 -40,-64 0,-40 0,8 -40,32 -80,8"/>
    <polygon points="0,-40 40,-64 80,-40 80,8 40,32 0,8"/>
    <polygon points="80,-40 120,-64 160,-40 160,8 120,32 80,8"/>
    <polygon points="-120,32 -80,8 -40,32 -40,80 -80,104 -120,80"/>
    <polygon points="-40,32 0,8 40,32 40,80 0,104 -40,80"/>
    <polygon points="40,32 80,8 120,32 120,80 80,104 40,80"/>
  </g>

  <!-- tiny accents -->
  <g opacity="0.12">
    <circle cx="70" cy="600" r="4" fill="#b38e23"/>
    <circle cx="900" cy="40" r="4" fill="#cfa72b"/>
  </g>
</svg>

