<?xml version="1.0" encoding="UTF-8"?>
<svg xmlns="http://www.w3.org/2000/svg" width="960" height="640" viewBox="0 0 960 640" aria-hidden="true" role="img">
  <defs>
    <linearGradient id="bg" x1="0" y1="0" x2="1" y2="1">
      <stop offset="0%" stop-color="#FFF9E8"/>
      <stop offset="100%" stop-color="#FFFFFF"/>
    </linearGradient>
    <linearGradient id="gold" x1="0" y1="0" x2="1" y2="1">
      <stop offset="0%" stop-color="#cfa72b"/>
      <stop offset="100%" stop-color="#b38e23"/>
    </linearGradient>
    <filter id="blur" x="-20%" y="-20%" width="140%" height="140%">
      <feGaussianBlur stdDeviation="28"/>
    </filter>
  </defs>

  <rect width="960" height="640" fill="url(#bg)"/>

  <!-- soft glow backdrop -->
  <g opacity="0.22">
    <circle cx="760" cy="500" r="200" fill="#EFCB57" filter="url(#blur)"/>
    <circle cx="200" cy="140" r="160" fill="#E4B83A" filter="url(#blur)"/>
  </g>

  <!-- olive oil bottle + branch -->
  <g transform="translate(480,350)">
    <!-- bottle cap -->
    <rect x="-60" y="-200" width="120" height="36" rx="8" fill="#1a1a1a" opacity="0.9"/>
    <!-- bottle body -->
    <rect x="-80" y="-164" width="160" height="280" rx="24" fill="#fff" stroke="#eaeaea" stroke-width="2"/>
    <!-- oil fill -->
    <rect x="-70" y="-40" width="140" height="140" rx="18" fill="url(#gold)" opacity="0.9"/>
    <!-- label -->
    <rect x="-60" y="-104" width="120" height="80" rx="14" fill="#fff" stroke="#e0e0e0"/>

    <!-- olive branch -->
    <g transform="translate(120,10) rotate(-8)">
      <path d="M-20,0 C40,-10 60,20 100,10" fill="none" stroke="#cfa72b" stroke-width="6" stroke-linecap="round"/>
      <ellipse cx="30" cy="-6" rx="18" ry="12" fill="#1a1a1a" opacity="0.9"/>
      <ellipse cx="70" cy="-2" rx="18" ry="12" fill="#1a1a1a" opacity="0.9"/>
      <path d="M20,-24 C40,-36 60,-36 80,-24" fill="none" stroke="#b38e23" stroke-width="6" stroke-linecap="round" opacity="0.6"/>
    </g>
  </g>

  <!-- accents -->
  <g opacity="0.12">
    <circle cx="70" cy="600" r="4" fill="#b38e23"/>
    <circle cx="900" cy="40" r="4" fill="#cfa72b"/>
  </g>
</svg>

