<?xml version="1.0" encoding="UTF-8"?>
<svg xmlns="http://www.w3.org/2000/svg" width="64" height="64" viewBox="0 0 64 64" aria-hidden="true" role="img">
  <defs>
    <linearGradient id="gold3" x1="0" y1="0" x2="1" y2="1">
      <stop offset="0%" stop-color="#cfa72b"/>
      <stop offset="100%" stop-color="#b38e23"/>
    </linearGradient>
  </defs>
  <g fill="none" stroke="url(#gold3)" stroke-width="2.5" stroke-linecap="round" stroke-linejoin="round">
    <!-- caring hands with leaf/bee motif -->
    <path d="M12 36c4 0 7 2 10 5s7 5 10 5c5 0 7-3 12-6"/>
    <path d="M52 36c-4 0-7 2-10 5s-7 5-10 5c-5 0-7-3-12-6" opacity=".6"/>
    <path d="M32 18c3 0 6 2.5 6 5.5S35 30 32 30s-6-3-6-6.5S29 18 32 18z"/>
    <path d="M28 20c0-2 2-4 4-4" opacity=".6"/>
  </g>
</svg>

